<?xml version="1.0" encoding="UTF-8" standalone="no"?>
<svg xmlns="http://www.w3.org/2000/svg" viewBox="0 0 600 800" width="600" height="800"><rect width="100%" height="100%" fill="#f0f0f0" /><g id="skeleton" stroke="#888888" stroke-width="2" fill="none"><line id="spine" x1="300" y1="200" x2="300" y2="400" /><line id="leftShoulderLine" x1="300" y1="220" x2="230" y2="220" /><line id="rightShoulderLine" x1="300" y1="220" x2="370" y2="220" /><line id="leftHipLine" x1="300" y1="400" x2="270" y2="400" /><line id="rightHipLine" x1="300" y1="400" x2="330" y2="400" /><line id="leftUpperArmLine" x1="230" y1="220" x2="180" y2="300" /><line id="leftLowerArmLine" x1="180" y1="300" x2="160" y2="380" /><line id="rightUpperArmLine" x1="370" y1="220" x2="420" y2="300" /><line id="rightLowerArmLine" x1="420" y1="300" x2="440" y2="380" /><line id="leftUpperLegLine" x1="270" y1="400" x2="250" y2="550" /><line id="leftLowerLegLine" x1="250" y1="550" x2="240" y2="680" /><line id="rightUpperLegLine" x1="330" y1="400" x2="350" y2="550" /><line id="rightLowerLegLine" x1="350" y1="550" x2="360" y2="680" /></g><g id="character"><path id="body" d="M270,220 C270,200 330,200 330,220 L330,400 C330,420 270,420 270,400 Z" fill="#ffaaaa" stroke="#000000" stroke-width="2" /><circle id="head" cx="300" cy="150" r="60" fill="#ffffcc" stroke="#000000" stroke-width="2" /><ellipse id="face" cx="300" cy="150" rx="40" ry="45" fill="#ffffee" /><ellipse id="leftEyeShape" cx="285" cy="140" rx="8" ry="12" fill="white" stroke="#000000" stroke-width="1" /><circle id="leftPupil" cx="285" cy="140" r="4" fill="#000000" /><ellipse id="rightEyeShape" cx="315" cy="140" rx="8" ry="12" fill="white" stroke="#000000" stroke-width="1" /><circle id="rightPupil" cx="315" cy="140" r="4" fill="#000000" /><path id="mouth" d="M285,170 C295,180 305,180 315,170" fill="none" stroke="#000000" stroke-width="2" /><path id="leftArm" d="M270,220 L180,300 L160,380" stroke="#000000" stroke-width="2" fill="#ffffcc" /><path id="rightArm" d="M330,220 L420,300 L440,380" stroke="#000000" stroke-width="2" fill="#ffffcc" /><path id="leftLeg" d="M270,400 L250,550 L240,680" stroke="#000000" stroke-width="2" fill="#aaaaff" /><path id="rightLeg" d="M330,400 L350,550 L360,680" stroke="#000000" stroke-width="2" fill="#aaaaff" /></g><g id="joints" fill="red" stroke="none"><circle id="nose" cx="300" cy="130" r="3" /><circle id="leftEye" cx="285" cy="140" r="3" /><circle id="rightEye" cx="315" cy="140" r="3" /><circle id="leftEar" cx="270" cy="150" r="3" /><circle id="rightEar" cx="330" cy="150" r="3" /><circle id="leftShoulder" cx="230" cy="220" r="5" /><circle id="rightShoulder" cx="370" cy="220" r="5" /><circle id="leftElbow" cx="180" cy="300" r="5" /><circle id="rightElbow" cx="420" cy="300" r="5" /><circle id="leftWrist" cx="160" cy="380" r="5" /><circle id="rightWrist" cx="440" cy="380" r="5" /><circle id="leftHip" cx="270" cy="400" r="5" /><circle id="rightHip" cx="330" cy="400" r="5" /><circle id="leftKnee" cx="250" cy="550" r="5" /><circle id="rightKnee" cx="350" cy="550" r="5" /><circle id="leftAnkle" cx="240" cy="680" r="5" /><circle id="rightAnkle" cx="360" cy="680" r="5" /></g></svg>